<?xml version="1.0" encoding="utf-8"?>
<!-- Generator: Adobe Illustrator 16.0.0, SVG Export Plug-In . SVG Version: 6.00 Build 0)  -->
<!DOCTYPE svg PUBLIC "-//W3C//DTD SVG 1.1//EN" "http://www.w3.org/Graphics/SVG/1.1/DTD/svg11.dtd">
<svg version="1.1" id="Layer_1" xmlns="http://www.w3.org/2000/svg" xmlns:xlink="http://www.w3.org/1999/xlink" x="0px" y="0px"
	 width="140.084px" height="116.5px" viewBox="0.083 -16.5 140.084 116.5" enable-background="new 0.083 -16.5 140.084 116.5"
	 xml:space="preserve">
<g id="Layer_2">
	<g>
		<path fill="#777777" d="M55.091,57.5H15.402v-71.91l0,0l-1.73-0.05h-4.95v2.447V-11v70.322v2.447c0,0.955,0.774,1.729,1.73,1.729
			h1.582H51.96h1.582c0.955,0,1.729-0.773,1.729-1.729V59.32h0.006"/>
	</g>
</g>
<g id="Layer_1_1_">
	<g>
		<path d="M130.277,14.498h-0.006v-4.02c0-0.956-0.773-1.73-1.729-1.73h-2.451l0,0H97.402l0,0h-1.73l-25.949,25.95v2.447v1.013
			V91.07v2.447c0,0.955,0.774,1.729,1.73,1.729h1.582h53.926h1.582c0.955,0,1.729-0.773,1.729-1.729v-2.449h0.006V14.498
			L130.277,14.498z M79.679,85.292V38.158h17.723c0.956,0,1.73-0.774,1.73-1.73V18.705h21.188v66.587H79.679z"/>
	</g>
</g>
</svg>
