<?xml version="1.0" encoding="utf-8"?>
<!-- Generator: Adobe Illustrator 16.0.0, SVG Export Plug-In . SVG Version: 6.00 Build 0)  -->
<!DOCTYPE svg PUBLIC "-//W3C//DTD SVG 1.1//EN" "http://www.w3.org/Graphics/SVG/1.1/DTD/svg11.dtd">
<svg version="1.1" id="Layer_1" xmlns="http://www.w3.org/2000/svg" xmlns:xlink="http://www.w3.org/1999/xlink" x="0px" y="0px"
	 width="266px" height="30px" viewBox="0.208 -1.063 266 30" enable-background="new 0.208 -1.063 266 30" xml:space="preserve">
<script  type="text/ecmascript">/*
   function buttonEvent(event) {
     if ((event.type == &quot;click&quot; &amp;&amp; event.button == 0) ||
         (event.type == &quot;keydown&quot; &amp;&amp;
	  (event.keyCode == 32 || event.keyCode ==13))) {
         var SVGDocument = event.target.ownerDocument;
         var SVGRoot     = SVGDocument.documentElement;
         var pressed = false;
         if (&quot;false&quot; == SVGRoot.getAttribute(&quot;aria-pressed&quot;)) {
            pressed = true;
         }
         SVGRoot.setAttribute(&quot;aria-pressed&quot;, pressed);
      }
    }
*/
	</script>
<g id="layer1">
	<path id="ButtonBase" class="ButtonBase" style="fill:#2F3034" d="M15.184,0.938h236.049c7.166,0,12.977,5.82,12.977,13l0,0c0,7.179-5.811,13-12.977,13
		H15.184c-7.167,0-12.976-5.821-12.976-13l0,0C2.208,6.758,8.018,0.938,15.184,0.938z"/>
	
		<radialGradient id="ButtonGlow_1_" cx="-1945.3877" cy="-286.9209" r="64.1621" gradientTransform="matrix(0 -0.7273 -1.9962 0 -439.54 -1390.297)" gradientUnits="userSpaceOnUse">
		<stop  offset="0" style="stop-color:#000000;stop-opacity:0"/>
		<stop  offset="1" style="stop-color:#000000;stop-opacity:0.5"/>
	</radialGradient>
	<path id="ButtonGlow" fill="url(#ButtonGlow_1_)" d="M15.184,0.938h236.049c7.166,0,12.977,5.82,12.977,13l0,0
		c0,7.179-5.811,13-12.977,13H15.184c-7.167,0-12.976-5.821-12.976-13l0,0C2.208,6.758,8.018,0.938,15.184,0.938z"/>
	
		<linearGradient id="ButtonHighlight_1_" gradientUnits="userSpaceOnUse" x1="-43.9111" y1="-466.2373" x2="-43.9111" y2="-479.2364" gradientTransform="matrix(1 0 0 -1 177.1201 -465.2988)">
		<stop  offset="0" style="stop-color:#FFFFFF"/>
		<stop  offset="1" style="stop-color:#FFFFFF;stop-opacity:0"/>
	</linearGradient>
	<text x="135" y="21" id="text3194" xml:space="preserve" style="font-size:16px;text-align:center;text-anchor:middle;fill:#000000;stroke:none;font-family:DejaVu Sans"><tspan x="135" y="21" id="TextShadow"></tspan></text>
    <text x="134" y="19" id="text3198" xml:space="preserve" style="font-size:16px;text-align:center;text-anchor:middle;fill:#ffffff;stroke:none;font-family:DejaVu Sans"><tspan x="134" y="19" id="Text"></tspan></text>
	<path id="ButtonHighlight" fill="url(#ButtonHighlight_1_)" d="M15.184,2.563h236.049c3.594,0,7.305,3.547,6.488,6.5
		c-0.596,2.153-2.895,1.625-6.488,1.625H15.184c-3.595,0-5.893,0.528-6.487-1.625C7.881,6.11,11.589,2.563,15.184,2.563z"/>
</g>
</svg>
